#N canvas 1 81 929 603 12;
#X obj 847 109 + 128;
#X obj 1025 98 / 3;
#X obj 484 103 / 3;
#X obj 1233 563 send toGUI;
#X obj 125 112 r OSC\$1-Vol-S;
#X obj 298 89 r OSC\$1-FFreq-S;
#X obj 663 66 r OSC\$1-FRes-S;
#X obj 847 69 r OSC\$1-Note-S;
#X obj 1023 74 r OSC\$1-NotOf-S;
#X obj 1582 44 r OSC\$1-Main-S;
#X obj 1389 76 r OSC\$1-DelM-S;
#X obj 1211 56 r OSC\$1-Del-S;
#X obj 484 64 r OSC\$1-FReM-S;
#X obj 10 247 r OSC\$1-Volm-S;
#X obj 10 313 \$1;
#X obj 10 280 t b f;
#X msg 10 426 list \$1 \$2;
#X obj 10 397 pack s f;
#X obj 10 356 makefilename /OSC%d-Volm;
#X obj 125 185 \$1;
#X obj 125 152 t b f;
#X msg 125 298 list \$1 \$2;
#X obj 125 269 pack s f;
#X obj 125 228 makefilename /OSC%d-Vol;
#X obj 298 167 \$1;
#X obj 298 134 t b f;
#X msg 298 280 list \$1 \$2;
#X obj 298 251 pack s f;
#X obj 298 210 makefilename /OSC%d-FFreq;
#X obj 484 167 \$1;
#X obj 484 134 t b f;
#X msg 484 280 list \$1 \$2;
#X obj 484 251 pack s f;
#X obj 484 210 makefilename /OSC%d-FReM;
#X obj 663 168 \$1;
#X obj 663 135 t b f;
#X msg 663 281 list \$1 \$2;
#X obj 663 252 pack s f;
#X obj 663 211 makefilename /OSC%d-FRes;
#X obj 847 168 \$1;
#X obj 847 135 t b f;
#X msg 847 281 list \$1 \$2;
#X obj 847 252 pack s f;
#X obj 847 211 makefilename /OSC%d-Note;
#X obj 1025 168 \$1;
#X obj 1025 135 t b f;
#X msg 1025 281 list \$1 \$2;
#X obj 1025 252 pack s f;
#X obj 1025 211 makefilename /OSC%d-NotOf;
#X obj 1214 168 \$1;
#X obj 1214 135 t b f;
#X msg 1214 281 list \$1 \$2;
#X obj 1214 252 pack s f;
#X obj 1214 211 makefilename /OSC%d-Del;
#X obj 1389 168 \$1;
#X obj 1389 135 t b f;
#X msg 1389 281 list \$1 \$2;
#X obj 1389 252 pack s f;
#X obj 1389 211 makefilename /OSC%d-DelM;
#X obj 1569 168 \$1;
#X obj 1569 135 t b f;
#X msg 1569 281 list \$1 \$2;
#X obj 1569 252 pack s f;
#X obj 1569 211 makefilename /OSC%d-Main;
#X connect 0 0 40 0;
#X connect 1 0 45 0;
#X connect 2 0 30 0;
#X connect 4 0 20 0;
#X connect 5 0 25 0;
#X connect 6 0 35 0;
#X connect 7 0 0 0;
#X connect 8 0 1 0;
#X connect 9 0 60 0;
#X connect 10 0 55 0;
#X connect 11 0 50 0;
#X connect 12 0 2 0;
#X connect 13 0 15 0;
#X connect 14 0 18 0;
#X connect 15 0 14 0;
#X connect 15 1 17 1;
#X connect 16 0 3 0;
#X connect 17 0 16 0;
#X connect 18 0 17 0;
#X connect 19 0 23 0;
#X connect 20 0 19 0;
#X connect 20 1 22 1;
#X connect 21 0 3 0;
#X connect 22 0 21 0;
#X connect 23 0 22 0;
#X connect 24 0 28 0;
#X connect 25 0 24 0;
#X connect 25 1 27 1;
#X connect 26 0 3 0;
#X connect 27 0 26 0;
#X connect 28 0 27 0;
#X connect 29 0 33 0;
#X connect 30 0 29 0;
#X connect 30 1 32 1;
#X connect 31 0 3 0;
#X connect 32 0 31 0;
#X connect 33 0 32 0;
#X connect 34 0 38 0;
#X connect 35 0 34 0;
#X connect 35 1 37 1;
#X connect 36 0 3 0;
#X connect 37 0 36 0;
#X connect 38 0 37 0;
#X connect 39 0 43 0;
#X connect 40 0 39 0;
#X connect 40 1 42 1;
#X connect 41 0 3 0;
#X connect 42 0 41 0;
#X connect 43 0 42 0;
#X connect 44 0 48 0;
#X connect 45 0 44 0;
#X connect 45 1 47 1;
#X connect 46 0 3 0;
#X connect 47 0 46 0;
#X connect 48 0 47 0;
#X connect 49 0 53 0;
#X connect 50 0 49 0;
#X connect 50 1 52 1;
#X connect 51 0 3 0;
#X connect 52 0 51 0;
#X connect 53 0 52 0;
#X connect 54 0 58 0;
#X connect 55 0 54 0;
#X connect 55 1 57 1;
#X connect 56 0 3 0;
#X connect 57 0 56 0;
#X connect 58 0 57 0;
#X connect 59 0 63 0;
#X connect 60 0 59 0;
#X connect 60 1 62 1;
#X connect 61 0 3 0;
#X connect 62 0 61 0;
#X connect 63 0 62 0;
