#N canvas 1 81 729 675 12;
#X obj 35 54 inlet;
#X obj 89 55 inlet;
#X obj 143 54 inlet;
#X obj 197 55 inlet;
#X obj 252 53 inlet;
#X obj 306 54 inlet;
#X obj 360 53 inlet;
#X obj 414 54 inlet;
#X obj 474 50 inlet;
#X obj 528 51 inlet;
#X obj 211 708 - 128;
#X obj 234 560 * 3;
#X obj 439 229 min 999;
#X obj 240 627 min 3000;
#X obj 349 499 min 1;
#X obj 367 367 * 3;
#X obj 349 476 max 0.01;
#X obj 368 398 max 0.01;
#X obj 235 591 max 0.01;
#X obj 96 673 max 1;
#X obj 439 206 max 1;
#X obj 96 754 s OSC\$1-Vol;
#X obj 212 737 s OSC\$1-Note;
#X obj 242 657 s OSC\$1-NotOf;
#X obj 325 585 s OSC\$1-FFreq;
#X obj 349 531 s OSC\$1-FRes;
#X obj 368 432 s OSC\$1-FReM;
#X obj 383 295 s OSC\$1-Volm;
#X obj 437 255 s OSC\$1-Del;
#X obj 502 176 s OSC\$1-DelM;
#X obj 546 129 s OSC\$1-Main;
#X connect 0 0 19 0;
#X connect 1 0 10 0;
#X connect 2 0 11 0;
#X connect 3 0 24 0;
#X connect 4 0 16 0;
#X connect 5 0 15 0;
#X connect 6 0 27 0;
#X connect 7 0 20 0;
#X connect 8 0 29 0;
#X connect 9 0 30 0;
#X connect 10 0 22 0;
#X connect 11 0 18 0;
#X connect 12 0 28 0;
#X connect 13 0 23 0;
#X connect 14 0 25 0;
#X connect 15 0 17 0;
#X connect 16 0 14 0;
#X connect 17 0 26 0;
#X connect 18 0 13 0;
#X connect 19 0 21 0;
#X connect 20 0 12 0;
